<svg xmlns="http://www.w3.org/2000/svg" viewBox="0 0 48.28 84.52"><defs><style>.cls-1,.cls-2,.cls-3,.cls-4,.cls-5{fill:none;stroke:#fff;}.cls-1,.cls-3,.cls-4,.cls-5{stroke-miterlimit:10;}.cls-1{stroke-width:4px;}.cls-2,.cls-3,.cls-4{stroke-linecap:round;}.cls-2{stroke-linejoin:round;stroke-width:1.08px;}.cls-3,.cls-5{stroke-width:2px;}.cls-4{stroke-width:1.3px;}</style></defs><title>baby_icon_1</title><g id="Layer_2" data-name="Layer 2"><g id="Layer_1-2" data-name="Layer 1"><g id="Baby"><path class="cls-1" d="M39,32.3a6.86,6.86,0,0,1-1-7.31,16.64,16.64,0,0,0,1.5-6.93C39.55,9.19,32.65,2,24.14,2S8.73,9.19,8.73,18.06A16.64,16.64,0,0,0,10.23,25a6.85,6.85,0,0,1-1,7.31C4.79,37.58,2,45.19,2,53.66,2,69.6,11.91,82.52,24.14,82.52S46.28,69.6,46.28,53.66C46.28,45.19,43.48,37.58,39,32.3Z"/><path class="cls-2" d="M31.62,16a5.92,5.92,0,0,1-4.55,0"/><path class="cls-2" d="M21.2,16a5.9,5.9,0,0,1-4.54,0"/><path class="cls-2" d="M19.53,24.25a16.52,16.52,0,0,0,9.22,0"/><line class="cls-3" x1="43.7" y1="41.75" x2="9.3" y2="75.1"/><line class="cls-3" x1="37.16" y1="30.22" x2="3.3" y2="64.07"/><line class="cls-3" x1="45.54" y1="56.82" x2="20.37" y2="81.21"/><path class="cls-3" d="M36.67,29.1s-12.21,9-25.23,0"/><path class="cls-4" d="M23.77,6.16a3.11,3.11,0,0,0,3,3.22"/><line class="cls-5" x1="26.48" y1="75.32" x2="32.06" y2="80.08"/></g><line class="cls-5" x1="9.35" y1="29.4" x2="24.85" y2="42.75"/><line class="cls-5" x1="42.93" y1="59.37" x2="46.85" y2="62.75"/><line class="cls-5" x1="34.74" y1="67.48" x2="40.12" y2="72.2"/><line class="cls-5" x1="4.35" y1="41.4" x2="16.02" y2="51.45"/><line class="cls-5" x1="2.93" y1="55.35" x2="7.8" y2="59.54"/></g></g></svg>