<svg xmlns="http://www.w3.org/2000/svg" viewBox="0 0 134.17 74.71"><defs><style>.cls-1{fill:none;stroke:#fff;stroke-linecap:round;stroke-miterlimit:10;stroke-width:4px;}.cls-2{fill:#fff;}</style></defs><title>bill_icon_n</title><g id="Layer_2" data-name="Layer 2"><g id="Layer_1-2" data-name="Layer 1"><line class="cls-1" x1="42.41" y1="34.28" x2="21.32" y2="34.28"/><path class="cls-2" d="M128.8,3.79a1.58,1.58,0,0,1,1.58,1.58v64a1.58,1.58,0,0,1-1.58,1.58H5.37a1.58,1.58,0,0,1-1.58-1.58v-64A1.58,1.58,0,0,1,5.37,3.79H128.8m0-3.79H5.37A5.38,5.38,0,0,0,0,5.37v64a5.38,5.38,0,0,0,5.37,5.37H128.8a5.38,5.38,0,0,0,5.37-5.37v-64A5.38,5.38,0,0,0,128.8,0Z"/><path class="cls-2" d="M122.94,8.78a1.38,1.38,0,0,1,1.38,1.39V64.54a1.38,1.38,0,0,1-1.38,1.38H11.23a1.38,1.38,0,0,1-1.38-1.38V10.17a1.38,1.38,0,0,1,1.38-1.39H122.94m0-2H11.23a3.38,3.38,0,0,0-3.37,3.38V64.54a3.37,3.37,0,0,0,3.37,3.37H122.94a3.37,3.37,0,0,0,3.37-3.37V10.17a3.38,3.38,0,0,0-3.37-3.38Z"/><path class="cls-2" d="M66.21,17.69c-8.28,0-15,8.42-15,18.81s6.72,18.8,15,18.8,15-8.42,15-18.8S74.49,17.69,66.21,17.69Zm6.28,27.52A7.81,7.81,0,0,1,68,47.27v3.28H65V47.33a13.82,13.82,0,0,1-3.68-.77,10,10,0,0,1-3-1.69l1.3-2.78a10.06,10.06,0,0,0,5.56,2.22V38.16a21.7,21.7,0,0,1-3.34-1.11,5.83,5.83,0,0,1-2.28-1.81,5,5,0,0,1-.92-3.12,5.51,5.51,0,0,1,.8-2.91A6.44,6.44,0,0,1,61.7,27,8.27,8.27,0,0,1,65,25.91V22.62h3v3.26a12.27,12.27,0,0,1,3.23.83,8.52,8.52,0,0,1,2.54,1.56l-1.3,2.79a9.23,9.23,0,0,0-4.68-2.13v6.41a21.87,21.87,0,0,1,3.29,1.08,5.62,5.62,0,0,1,2.19,1.74,4.79,4.79,0,0,1,.88,3A5.41,5.41,0,0,1,72.49,45.21Z"/><path class="cls-2" d="M67.8,38.87v5.29a3.5,3.5,0,0,0,1.9-1,2.72,2.72,0,0,0,.65-1.88,1.88,1.88,0,0,0-.65-1.48A5.34,5.34,0,0,0,67.8,38.87Z"/><path class="cls-2" d="M62.48,31.91a2.14,2.14,0,0,0,.71,1.67,5.56,5.56,0,0,0,2,1.08V29a3.77,3.77,0,0,0-2,1A2.69,2.69,0,0,0,62.48,31.91Z"/><line class="cls-1" x1="42.41" y1="40.28" x2="21.32" y2="40.28"/><line class="cls-1" x1="112.41" y1="34.28" x2="91.32" y2="34.28"/><line class="cls-1" x1="112.41" y1="40.28" x2="91.32" y2="40.28"/><path class="cls-2" d="M12.22,7a3,3,0,1,1-4.16,4.32"/><path class="cls-2" d="M7.83,63.53a3,3,0,1,1,4.32,4.16"/><path class="cls-2" d="M121.88,67.69A3,3,0,0,1,126,63.37"/><path class="cls-2" d="M126.26,11.17A3,3,0,1,1,122,7"/></g></g></svg>